<svg version="1" xmlns="http://www.w3.org/2000/svg" width="933.333" height="933.333" viewBox="0 0 700.000000 700.000000"><path d="M191.5 121.1c-2.7.5-7.2 1.1-9.9 1.4-5.8.8-6.2.9-14.6 2.8-76 17.9-135.8 79.9-150.4 156.2-.8 4.4-1.8 9.6-2.2 11.5-.4 1.9-1 53.4-1.2 114.5-.4 116.4-.3 119.4 4 129.5 3.8 9.1 4.3 10 5 10 .5 0 .8.6.8 1.4 0 .8 3.1 4.7 6.9 8.7 7.6 8.2 17 14.3 27.1 17.8 9 3 23.2 3.8 33 1.7 23.4-4.9 43.5-24.3 48.9-47.2 1.6-6.6 1.9-10 2-20.9l.1-9 38.3-.1c41.4 0 41.5 0 46.8-5.7 8-8.5 6.2-22.6-3.8-28.9l-3.8-2.3H116.4l-4.2 2.8c-7.8 5.1-8.5 7.9-8.7 33.2-.2 21.5-.3 22.1-2.8 27-5 9.9-12.7 14.8-23.2 14.9-11.6 0-20.3-5.4-25.1-15.9l-2.3-5 .2-109c.2-59.9.7-110.6 1.1-112.5.9-4.7 2.9-14.3 3.2-15.5.8-4.3 4.9-17.4 7-22.6 11.9-29.2 31.5-54.1 57.2-72.6 11.8-8.5 32.7-18.9 45.7-22.7 33.9-9.8 67.1-9.5 99.5 1.1 35.5 11.5 68.7 38.2 88.3 70.9 10.4 17.3 18.9 41.3 21.2 59.4.4 3 .9 7.1 1.2 9 .3 1.9.6 43.3.7 92 .2 60.8.6 89.3 1.3 91 1.6 3.7 5.3 7.5 9.3 9.6 3.2 1.6 6.8 1.8 42 1.8 41.8 0 49.8-.5 63.3-3.5 18.1-4 41.2-14 53.2-23.1 22.9-17.2 38.4-35.5 49.2-57.8 14.3-29.7 18.4-63.3 11.7-95.8-9.9-48-44.5-89.3-90.4-107.7-5.8-2.3-12.7-4.7-15.5-5.4-2.7-.7-5.9-1.5-7-1.8-7.4-1.8-19.5-3.3-28-3.5-9.3-.2-10.4 0-14.5 2.4-11.1 6.5-12.5 21.9-2.7 30.2 4.1 3.6 5 3.8 22.2 5.1 4.9.4 9.2.8 9.6 1 .3.2 2.1.7 4 1 12.4 2.1 33.1 11.6 44 20.2 28.1 22.2 44.1 54.8 43.9 89.2 0 11.2-.4 14.9-2.6 25.9-2.1 10.7-11.3 30.2-19.1 40.7-6.7 9-18.5 20.5-26.7 25.9-12.2 8.1-28.8 15.3-39.6 17.1-1.9.4-5.7 1-8.5 1.5-6.4 1.1-61.5 1.3-61.6.3 0-.4-.2-36.6-.3-80.3-.2-43.7-.6-81.5-1-84s-1.6-9.1-2.6-14.6c-11.9-61.6-51.6-113.8-107.5-141.4-15.1-7.4-30-12.9-42.5-15.5-.8-.2-3.5-.8-6-1.4-2.5-.5-6.7-1.3-9.5-1.7-2.7-.3-5.4-.9-5.9-1.2-1.5-.9-40.6-1-46.1-.1z"/><path d="M388 123.6c-7.7 3.4-11.4 9.8-10.8 18.6.3 4.5 1.1 6.5 3.4 9.5 6.1 7.5 5.2 7.4 52.6 7.8 23.3.2 44.1.6 46.3.8 2.2.3 6 .8 8.5 1.2 2.5.3 9.3 1.7 15.2 3 48.3 11.2 91.8 42.6 118.1 85.4 15.3 24.8 23.8 49.7 27.7 81.6.8 7 .5 34.8-.5 42-10.9 79.4-67.6 143-144 161.5-21.5 5.3-24.8 5.4-94 5.4-59.7 0-60 0-65.6-2.2-10.1-4-18.2-13-21.5-23.8-1.1-3.8-1.4-22.5-1.5-104.3 0-107.7 0-106.9-5.5-123.6-3.7-11.3-10.5-24.2-17.1-32.6-3.8-5-17-17.8-22.3-21.7-27.8-20.4-65.2-26.2-99.1-15.1-38.6 12.6-67.6 47.9-73.5 89.4-.4 2.7-.8 23.2-.9 45.5-.1 30.9.2 41.6 1.2 45.1 1.6 5.8 7.5 11.5 13 12.5 2.1.4 25.2.7 51.4.7 42.5 0 47.9-.2 51.1-1.7 14.4-6.8 14.6-27.2.4-33.7-3.8-1.7-7.1-1.9-41.9-1.9h-37.8l.1-30.8c.1-27.1.3-31.7 2.1-38.4 3.7-14.8 9.4-24.7 19.9-34.8 17.4-16.8 41-23.6 65-18.6 7.9 1.7 19.3 6.6 26.2 11.4 14.4 9.9 25.7 27.5 29.3 45.2.4 1.9.9 48.7 1 104 .2 73.1.6 102.3 1.5 107 5.4 29.5 29.1 53.1 59 58.9 5.8 1.1 135.3 1 140-.2 1.4-.3 4.8-.8 7.5-1.2 24.8-3.1 56.7-14.2 81-28.3 43.1-24.8 80-67.7 97.5-113.2 1.8-4.7 3.7-9.4 4.1-10.5 1.9-4.5 7-24.8 9-36 1.7-9.5 2.2-16.8 2.5-34.5.1-12.4-.1-24.5-.6-27-.4-2.5-1.1-6.5-1.4-9-2.9-22.6-9.8-44.6-21.1-67.5-21.6-44-55.6-78.9-99-101.6-14.7-7.7-37.3-16.5-46.9-18.3-1.1-.2-4.8-1.1-8.1-1.9-8.4-2.1-16.7-3.5-28.5-4.7-4.1-.4-25.9-.8-48.5-.9-34.7 0-41.5.2-44.5 1.5z"/></svg>